<svg width="35" height="23" viewBox="0 0 35 23" fill="none" xmlns="http://www.w3.org/2000/svg">
<path d="M17.5 0C28.4375 0 35 11.5 35 11.5C35 11.5 28.4375 23 17.5 23C6.5625 23 0 11.5 0 11.5C0 11.5 6.5625 0 17.5 0ZM17.5 2.09091C9.8 2.09091 4.37063 8.88845 2.57031 11.5C4.36844 14.1095 9.79781 20.9091 17.5 20.9091C25.2 20.9091 30.6294 14.1115 32.4297 11.5C30.6316 8.89054 25.2022 2.09091 17.5 2.09091ZM17.5 4.18182C19.5306 4.18182 21.478 4.95284 22.9138 6.32526C24.3496 7.69769 25.1562 9.5591 25.1562 11.5C25.1562 13.4409 24.3496 15.3023 22.9138 16.6747C21.478 18.0472 19.5306 18.8182 17.5 18.8182C15.4694 18.8182 13.522 18.0472 12.0862 16.6747C10.6504 15.3023 9.84375 13.4409 9.84375 11.5C9.84375 9.5591 10.6504 7.69769 12.0862 6.32526C13.522 4.95284 15.4694 4.18182 17.5 4.18182ZM17.5 6.27273C16.0501 6.27437 14.6601 6.82563 13.6349 7.80557C12.6097 8.78552 12.033 10.1141 12.0312 11.5C12.0312 14.3813 14.4834 16.7273 17.5 16.7273C20.5166 16.7273 22.9688 14.3813 22.9688 11.5C22.9688 8.61873 20.5166 6.27273 17.5 6.27273Z" fill="#FD9B00"/>
</svg>
