<svg width="38" height="45" viewBox="0 0 38 45" fill="none" xmlns="http://www.w3.org/2000/svg">
<path fill-rule="evenodd" clip-rule="evenodd" d="M23.4713 8.56312C23.7041 8.15324 23.791 7.6511 23.7129 7.16581C23.6349 6.68052 23.3983 6.25131 23.0545 5.97144C22.7108 5.69158 22.2877 5.58367 21.8771 5.67117C21.4665 5.75867 21.1017 6.03451 20.8619 6.43875L18.9999 9.645L17.1379 6.43875C17.0211 6.23313 16.871 6.05697 16.6964 5.92046C16.5217 5.78395 16.3259 5.6898 16.1204 5.64344C15.9148 5.59709 15.7035 5.59946 15.4987 5.6504C15.2939 5.70135 15.0996 5.79988 14.9272 5.94027C14.7548 6.08067 14.6075 6.26016 14.494 6.46836C14.3805 6.67656 14.303 6.90934 14.2659 7.15324C14.2288 7.39714 14.233 7.64732 14.2781 7.88932C14.3231 8.13132 14.4083 8.36034 14.5286 8.56312L17.0778 12.9544L3.91867 35.625H3.16659C2.74666 35.625 2.34393 35.8225 2.047 36.1742C1.75007 36.5258 1.58325 37.0027 1.58325 37.5C1.58325 37.9973 1.75007 38.4742 2.047 38.8258C2.34393 39.1775 2.74666 39.375 3.16659 39.375H34.8333C35.2532 39.375 35.6559 39.1775 35.9528 38.8258C36.2498 38.4742 36.4166 37.9973 36.4166 37.5C36.4166 37.0027 36.2498 36.5258 35.9528 36.1742C35.6559 35.8225 35.2532 35.625 34.8333 35.625H34.0828L20.9221 12.9563L23.4713 8.56312ZM25.3111 35.625H30.24L18.9999 16.2638L7.75984 35.625H12.6903L17.6858 27.0806C17.8329 26.8292 18.0294 26.6238 18.2582 26.4819C18.4871 26.34 18.7416 26.2659 18.9999 26.2659C19.2582 26.2659 19.5127 26.34 19.7416 26.4819C19.9705 26.6238 20.1669 26.8292 20.3141 27.0806L25.3111 35.625ZM16.541 35.625H21.4588L18.9999 31.4194L16.541 35.625Z" fill="#FD9B00"/>
</svg>
