<svg width="20" height="20" viewBox="0 0 20 20" fill="none" xmlns="http://www.w3.org/2000/svg">
<path d="M4.92 4.956L3.45 3.473M12.759 4.956L14.229 3.473M3.449 14.353L4.919 12.869M8.839 2.979V1M2.959 8.913H1M14.875 14.836L18.689 13.33C18.781 13.2932 18.8599 13.2296 18.9155 13.1475C18.971 13.0655 19.0007 12.9686 19.0007 12.8695C19.0007 12.7704 18.971 12.6735 18.9155 12.5915C18.8599 12.5094 18.781 12.4458 18.689 12.409L9.524 8.794C9.43478 8.75947 9.33742 8.7517 9.24385 8.77165C9.15028 8.7916 9.06456 8.8384 8.99718 8.90631C8.92979 8.97423 8.88367 9.06031 8.86446 9.15404C8.84524 9.24776 8.85377 9.34505 8.889 9.434L12.471 18.685C12.633 19.105 13.221 19.105 13.383 18.685L14.875 14.836Z" stroke="white" stroke-width="1.5" stroke-linecap="round" stroke-linejoin="round"/>
</svg>
