<svg width="25" height="25" viewBox="0 0 25 25" fill="none" xmlns="http://www.w3.org/2000/svg">
<path fill-rule="evenodd" clip-rule="evenodd" d="M0.586388 2.80742C0 3.93627 0 5.41932 0 8.38542V16.6146C0 19.5807 0 21.0637 0.586388 22.1926C1.08053 23.1438 1.85616 23.9195 2.80742 24.4136C3.93627 25 5.41932 25 8.38542 25H16.6146C19.5807 25 21.0637 25 22.1926 24.4136C23.1438 23.9195 23.9195 23.1438 24.4136 22.1926C25 21.0637 25 19.5807 25 16.6146V8.38542C25 5.41932 25 3.93627 24.4136 2.80742C23.9195 1.85616 23.1438 1.08053 22.1926 0.586388C21.0637 0 19.5807 0 16.6146 0H8.38542C5.41932 0 3.93627 0 2.80742 0.586388C1.85616 1.08053 1.08053 1.85616 0.586388 2.80742ZM17.9167 12.5L17.3611 15.9722H14.5833V25H10.4167V15.9722H7.29167V12.5H10.4167V9.72221C10.4167 6.59721 12.4306 4.8611 15.2778 4.8611C16.1806 4.8611 17.1528 4.99999 18.0556 5.13888V8.33332H16.4583C14.9306 8.33332 14.5833 9.09721 14.5833 10.0694V12.5H17.9167Z" fill="#EAEAEA"/>
</svg>
