<svg width="25" height="25" viewBox="0 0 25 25" fill="none" xmlns="http://www.w3.org/2000/svg">
<path fill-rule="evenodd" clip-rule="evenodd" d="M0.586388 2.80742C0 3.93627 0 5.41932 0 8.38542V16.6146C0 19.5807 0 21.0637 0.586388 22.1926C1.08053 23.1438 1.85616 23.9195 2.80742 24.4136C3.93627 25 5.41932 25 8.38542 25H16.6146C19.5807 25 21.0637 25 22.1926 24.4136C23.1438 23.9195 23.9195 23.1438 24.4136 22.1926C25 21.0637 25 19.5807 25 16.6146V8.38542C25 5.41932 25 3.93627 24.4136 2.80742C23.9195 1.85616 23.1438 1.08053 22.1926 0.586388C21.0637 0 19.5807 0 16.6146 0H8.38542C5.41932 0 3.93627 0 2.80742 0.586388C1.85616 1.08053 1.08053 1.85616 0.586388 2.80742ZM8.73773 3.46402C9.7074 3.4199 10.0172 3.4091 12.4861 3.4091H12.4833C14.9529 3.4091 15.2616 3.4199 16.2313 3.46402C17.199 3.50834 17.86 3.66156 18.4395 3.88637C19.038 4.11838 19.5437 4.42899 20.0493 4.93467C20.555 5.43997 20.8656 5.94717 21.0985 6.54508C21.322 7.12311 21.4754 7.78372 21.5209 8.75152C21.5644 9.72122 21.5758 10.0311 21.5758 12.5C21.5758 14.9689 21.5644 15.278 21.5209 16.2477C21.4754 17.2152 21.322 17.876 21.0985 18.4542C20.8656 19.0519 20.555 19.5591 20.0493 20.0644C19.5442 20.5701 19.0378 20.8814 18.4401 21.1136C17.8617 21.3385 17.2004 21.4917 16.2326 21.536C15.2629 21.5801 14.954 21.5909 12.485 21.5909C10.0163 21.5909 9.70665 21.5801 8.73698 21.536C7.76939 21.4917 7.10862 21.3385 6.53023 21.1136C5.93271 20.8814 5.42552 20.5701 4.92043 20.0644C4.41495 19.5591 4.10435 19.0519 3.87197 18.454C3.64736 17.876 3.49414 17.2153 3.44964 16.2475C3.4057 15.2778 3.39471 14.9689 3.39471 12.5C3.39471 10.0311 3.40608 9.72103 3.44945 8.75133C3.49301 7.78391 3.64641 7.12311 3.87178 6.54489C4.10473 5.94717 4.41533 5.43997 4.92099 4.93467C5.42628 4.42918 5.93346 4.11857 6.53136 3.88637C7.10938 3.66156 7.76996 3.50834 8.73773 3.46402ZM12.1831 5.04727C11.9993 5.04719 11.8289 5.04711 11.6706 5.04736V5.04508C9.97633 5.04698 9.65134 5.05834 8.81273 5.09622C7.9264 5.13694 7.44516 5.28467 7.12472 5.40967C6.70049 5.57482 6.39746 5.77179 6.07929 6.08997C5.76112 6.40815 5.56378 6.71118 5.39901 7.13543C5.27458 7.45588 5.12648 7.93694 5.08595 8.8233C5.04239 9.78164 5.03368 10.068 5.03368 12.4957C5.03368 14.9233 5.04239 15.2112 5.08595 16.1695C5.12629 17.0559 5.27458 17.5369 5.39901 17.857C5.56416 18.2814 5.76112 18.5837 6.07929 18.9019C6.39746 19.2201 6.70049 19.4171 7.12472 19.5818C7.44535 19.7063 7.9264 19.8544 8.81273 19.8953C9.77104 19.9388 10.0587 19.9483 12.4861 19.9483C14.9133 19.9483 15.2012 19.9388 16.1595 19.8953C17.0458 19.8547 17.5272 19.707 17.8473 19.582C18.2717 19.4172 18.5738 19.2203 18.892 18.9021C19.2101 18.5841 19.4075 18.282 19.5723 17.8578C19.6967 17.5377 19.8448 17.0566 19.8853 16.1703C19.9289 15.2119 19.9383 14.9241 19.9383 12.4979C19.9383 10.0718 19.9289 9.78391 19.8853 8.82558C19.845 7.93921 19.6967 7.45815 19.5723 7.13808C19.4071 6.71383 19.2101 6.4108 18.892 6.09262C18.574 5.77444 18.2715 5.57747 17.8473 5.4127C17.5269 5.28827 17.0458 5.14016 16.1595 5.09963C15.201 5.05607 14.9133 5.04736 12.4861 5.04736C12.3812 5.04736 12.2803 5.04731 12.1831 5.04727ZM16.2477 7.64736C16.2477 7.04489 16.7364 6.55683 17.3386 6.55683V6.55645C17.9409 6.55645 18.4295 7.04508 18.4295 7.64736C18.4295 8.24963 17.9409 8.73827 17.3386 8.73827C16.7364 8.73827 16.2477 8.24963 16.2477 7.64736ZM7.81769 12.5C7.81769 9.92185 9.90786 7.83155 12.4859 7.83145C15.0641 7.83145 17.1538 9.92179 17.1538 12.5C17.1538 15.0782 15.0642 17.1676 12.4861 17.1676C9.90796 17.1676 7.81769 15.0782 7.81769 12.5ZM15.5163 12.5C15.5163 10.8263 14.1595 9.46971 12.4861 9.46971C10.8125 9.46971 9.4559 10.8263 9.4559 12.5C9.4559 14.1735 10.8125 15.5303 12.4861 15.5303C14.1595 15.5303 15.5163 14.1735 15.5163 12.5Z" fill="#2E475D"/>
<path fill-rule="evenodd" clip-rule="evenodd" d="M0.586388 2.80742C0 3.93627 0 5.41932 0 8.38542V16.6146C0 19.5807 0 21.0637 0.586388 22.1926C1.08053 23.1438 1.85616 23.9195 2.80742 24.4136C3.93627 25 5.41932 25 8.38542 25H16.6146C19.5807 25 21.0637 25 22.1926 24.4136C23.1438 23.9195 23.9195 23.1438 24.4136 22.1926C25 21.0637 25 19.5807 25 16.6146V8.38542C25 5.41932 25 3.93627 24.4136 2.80742C23.9195 1.85616 23.1438 1.08053 22.1926 0.586388C21.0637 0 19.5807 0 16.6146 0H8.38542C5.41932 0 3.93627 0 2.80742 0.586388C1.85616 1.08053 1.08053 1.85616 0.586388 2.80742ZM8.73773 3.46402C9.7074 3.4199 10.0172 3.4091 12.4861 3.4091H12.4833C14.9529 3.4091 15.2616 3.4199 16.2313 3.46402C17.199 3.50834 17.86 3.66156 18.4395 3.88637C19.038 4.11838 19.5437 4.42899 20.0493 4.93467C20.555 5.43997 20.8656 5.94717 21.0985 6.54508C21.322 7.12311 21.4754 7.78372 21.5209 8.75152C21.5644 9.72122 21.5758 10.0311 21.5758 12.5C21.5758 14.9689 21.5644 15.278 21.5209 16.2477C21.4754 17.2152 21.322 17.876 21.0985 18.4542C20.8656 19.0519 20.555 19.5591 20.0493 20.0644C19.5442 20.5701 19.0378 20.8814 18.4401 21.1136C17.8617 21.3385 17.2004 21.4917 16.2326 21.536C15.2629 21.5801 14.954 21.5909 12.485 21.5909C10.0163 21.5909 9.70665 21.5801 8.73698 21.536C7.76939 21.4917 7.10862 21.3385 6.53023 21.1136C5.93271 20.8814 5.42552 20.5701 4.92043 20.0644C4.41495 19.5591 4.10435 19.0519 3.87197 18.454C3.64736 17.876 3.49414 17.2153 3.44964 16.2475C3.4057 15.2778 3.39471 14.9689 3.39471 12.5C3.39471 10.0311 3.40608 9.72103 3.44945 8.75133C3.49301 7.78391 3.64641 7.12311 3.87178 6.54489C4.10473 5.94717 4.41533 5.43997 4.92099 4.93467C5.42628 4.42918 5.93346 4.11857 6.53136 3.88637C7.10938 3.66156 7.76996 3.50834 8.73773 3.46402ZM12.1831 5.04727C11.9993 5.04719 11.8289 5.04711 11.6706 5.04736V5.04508C9.97633 5.04698 9.65134 5.05834 8.81273 5.09622C7.9264 5.13694 7.44516 5.28467 7.12472 5.40967C6.70049 5.57482 6.39746 5.77179 6.07929 6.08997C5.76112 6.40815 5.56378 6.71118 5.39901 7.13543C5.27458 7.45588 5.12648 7.93694 5.08595 8.8233C5.04239 9.78164 5.03368 10.068 5.03368 12.4957C5.03368 14.9233 5.04239 15.2112 5.08595 16.1695C5.12629 17.0559 5.27458 17.5369 5.39901 17.857C5.56416 18.2814 5.76112 18.5837 6.07929 18.9019C6.39746 19.2201 6.70049 19.4171 7.12472 19.5818C7.44535 19.7063 7.9264 19.8544 8.81273 19.8953C9.77104 19.9388 10.0587 19.9483 12.4861 19.9483C14.9133 19.9483 15.2012 19.9388 16.1595 19.8953C17.0458 19.8547 17.5272 19.707 17.8473 19.582C18.2717 19.4172 18.5738 19.2203 18.892 18.9021C19.2101 18.5841 19.4075 18.282 19.5723 17.8578C19.6967 17.5377 19.8448 17.0566 19.8853 16.1703C19.9289 15.2119 19.9383 14.9241 19.9383 12.4979C19.9383 10.0718 19.9289 9.78391 19.8853 8.82558C19.845 7.93921 19.6967 7.45815 19.5723 7.13808C19.4071 6.71383 19.2101 6.4108 18.892 6.09262C18.574 5.77444 18.2715 5.57747 17.8473 5.4127C17.5269 5.28827 17.0458 5.14016 16.1595 5.09963C15.201 5.05607 14.9133 5.04736 12.4861 5.04736C12.3812 5.04736 12.2803 5.04731 12.1831 5.04727ZM16.2477 7.64736C16.2477 7.04489 16.7364 6.55683 17.3386 6.55683V6.55645C17.9409 6.55645 18.4295 7.04508 18.4295 7.64736C18.4295 8.24963 17.9409 8.73827 17.3386 8.73827C16.7364 8.73827 16.2477 8.24963 16.2477 7.64736ZM7.81769 12.5C7.81769 9.92185 9.90786 7.83155 12.4859 7.83145C15.0641 7.83145 17.1538 9.92179 17.1538 12.5C17.1538 15.0782 15.0642 17.1676 12.4861 17.1676C9.90796 17.1676 7.81769 15.0782 7.81769 12.5ZM15.5163 12.5C15.5163 10.8263 14.1595 9.46971 12.4861 9.46971C10.8125 9.46971 9.4559 10.8263 9.4559 12.5C9.4559 14.1735 10.8125 15.5303 12.4861 15.5303C14.1595 15.5303 15.5163 14.1735 15.5163 12.5Z" fill="#2E475D"/>
</svg>
