<svg width="12" height="18" viewBox="0 0 12 18" fill="none" xmlns="http://www.w3.org/2000/svg">
<path d="M6 8.575C5.43168 8.575 4.88663 8.35112 4.48477 7.9526C4.08291 7.55409 3.85714 7.01359 3.85714 6.45C3.85714 5.88642 4.08291 5.34591 4.48477 4.9474C4.88663 4.54888 5.43168 4.325 6 4.325C6.56832 4.325 7.11337 4.54888 7.51523 4.9474C7.91709 5.34591 8.14286 5.88642 8.14286 6.45C8.14286 6.72906 8.08743 7.00539 7.97974 7.2632C7.87205 7.52102 7.71421 7.75528 7.51523 7.9526C7.31625 8.14993 7.08002 8.30645 6.82004 8.41324C6.56005 8.52004 6.2814 8.575 6 8.575ZM6 0.5C4.4087 0.5 2.88258 1.12687 1.75736 2.24271C0.632141 3.35856 0 4.87196 0 6.45C0 10.9125 6 17.5 6 17.5C6 17.5 12 10.9125 12 6.45C12 4.87196 11.3679 3.35856 10.2426 2.24271C9.11742 1.12687 7.5913 0.5 6 0.5Z" fill="white"/>
</svg>
