<svg width="20" height="22" viewBox="0 0 20 22" fill="none" xmlns="http://www.w3.org/2000/svg">
<path d="M15 4.8L14.3162 5.62051C13.8954 6.12557 13.8947 6.85901 14.3146 7.36487C15.0524 8.25372 14.4203 9.6 13.2651 9.6H7.2C6.53726 9.6 6 10.1373 6 10.8C6 11.4627 6.53726 12 7.2 12H13.2684C14.4207 12 15.0501 13.3439 14.3125 14.229L14.1679 14.4026C13.8328 14.8046 13.8318 15.3883 14.1655 15.7915C14.5992 16.3156 15.4025 16.317 15.838 15.7944L20 10.8M2 6.4C2 4.19086 3.79086 2.4 6 2.4H8.8C9.46274 2.4 10 1.86274 10 1.2C10 0.537258 9.46274 0 8.8 0H2C0.9 0 0 1.08 0 2.4V19.2C0 20.52 0.9 21.6 2 21.6H8.8C9.46274 21.6 10 21.0627 10 20.4C10 19.7373 9.46274 19.2 8.8 19.2H6C3.79086 19.2 2 17.4091 2 15.2V6.4Z" fill="#FD9B00"/>
</svg>
