<svg width="25" height="25" viewBox="0 0 25 25" fill="none" xmlns="http://www.w3.org/2000/svg">
<path d="M8.43374 0L15.7518 4.05325L24.0964 0.75255V10.4739H21.6867V4.18363L16.8675 6.09017V10.4739H14.4578V5.9838L9.63855 3.31557V17.2515L11.8892 18.4981L10.6747 20.4733L8.34458 19.182L0 22.4827V4.67084L8.43374 0ZM7.22892 17.1451V3.31557L2.40964 5.9838V19.0516L7.22892 17.1451ZM19.2771 13.905C18.3984 13.905 17.5556 14.2364 16.9343 14.8262C16.3129 15.4161 15.9639 16.216 15.9639 17.0502C15.9639 18.4821 16.8494 19.8568 17.9096 20.9639C18.4 21.4763 18.894 21.8949 19.2771 22.1934C19.6602 21.896 20.1542 21.4763 20.6446 20.9639C21.7048 19.8568 22.5904 18.4821 22.5904 17.0502C22.5904 16.216 22.2413 15.4161 21.6199 14.8262C20.9986 14.2364 20.1558 13.905 19.2771 13.905ZM19.2771 25L18.6084 24.578L18.606 24.5768L18.6012 24.5734L18.5867 24.5643L18.5386 24.5322C18.2903 24.3661 18.048 24.1922 17.812 24.0107C17.2113 23.549 16.6479 23.0451 16.1265 22.5033C14.9277 21.2521 13.5542 19.3387 13.5542 17.0502C13.5542 15.6094 14.1572 14.2276 15.2304 13.2088C16.3037 12.19 17.7593 11.6176 19.2771 11.6176C20.7949 11.6176 22.2506 12.19 23.3238 13.2088C24.3971 14.2276 25 15.6094 25 17.0502C25 19.3387 23.6265 21.2521 22.4277 22.5033C21.7004 23.2575 20.8919 23.9375 20.0157 24.5322L19.9675 24.5643L19.953 24.5734L19.9482 24.5768H19.9458L19.2771 25ZM17.7711 16.1924H20.7831V18.4798H17.7711V16.1924Z" fill="#FD9B00"/>
</svg>
