<svg width="33" height="33" viewBox="0 0 33 33" fill="none" xmlns="http://www.w3.org/2000/svg">
<rect width="33" height="33" rx="16.5" fill="white"/>
<path d="M27.9885 10.5019C27.9789 10.03 27.9394 9.55904 27.87 9.09168C27.7874 8.67597 27.647 8.27271 27.4526 7.89262C27.0269 7.08881 26.3446 6.43568 25.5045 6.02803C25.1097 5.8429 24.6909 5.70898 24.259 5.62981C23.7667 5.56213 23.2705 5.52356 22.7732 5.5143C22.5628 5.5066 22.2902 5.5033 22.1637 5.5033L10.8386 5.5C10.712 5.5 10.4395 5.5033 10.229 5.511C9.73567 5.52009 9.24332 5.55793 8.75475 5.62431C8.32017 5.70333 7.89859 5.83763 7.50125 6.02363C6.66099 6.43087 5.97823 7.0836 5.552 7.88712C5.35852 8.26478 5.21852 8.66543 5.1357 9.07848C5.06463 9.5494 5.02392 10.024 5.0138 10.4998C5.0069 10.7011 5.0023 10.9618 5.0023 11.0828L5 21.9161C5 22.0371 5.00345 22.2978 5.0115 22.4991C5.02101 22.9711 5.06056 23.4421 5.12995 23.9094C5.21258 24.3251 5.35297 24.7284 5.5474 25.1085C5.97313 25.9122 6.6555 26.5654 7.4955 26.9731C7.89032 27.1581 8.30916 27.292 8.74095 27.3713C9.23326 27.439 9.72947 27.4775 10.2267 27.4868C10.4372 27.4945 10.7097 27.4978 10.8362 27.4978L22.1614 27.5C22.288 27.5 22.5605 27.4967 22.7709 27.489C23.2643 27.4799 23.7567 27.442 24.2453 27.3757C24.6798 27.2966 25.1014 27.1623 25.4988 26.9764C26.3394 26.5693 27.0226 25.9166 27.4492 25.1129C27.6427 24.7352 27.7827 24.3346 27.8654 23.9215C27.9366 23.4506 27.9773 22.976 27.9874 22.5002C27.9942 22.2989 27.9988 22.0382 27.9988 21.9172L28 11.085C28 10.964 27.9965 10.7033 27.9885 10.5019ZM16.7495 24.1536H16.7461C15.3772 24.1534 14.0302 23.8251 12.8281 23.1988L8.48105 24.2889L9.64485 20.2264C8.74377 18.7307 8.38373 16.9924 8.62054 15.281C8.85736 13.5696 9.6778 11.9808 10.9547 10.7608C12.2315 9.54087 13.8935 8.75795 15.6829 8.53345C17.4722 8.30896 19.289 8.65543 20.8516 9.51915C22.4142 10.3829 23.6352 11.7156 24.3253 13.3107C25.0155 14.9058 25.1363 16.6741 24.6689 18.3415C24.2015 20.0089 23.1721 21.4823 21.7403 22.5331C20.3085 23.5839 18.5542 24.1535 16.7495 24.1536Z" fill="#FD9B00"/>
<path d="M16.753 9.79163C15.5352 9.79129 14.3396 10.103 13.2905 10.6944C12.2414 11.2858 11.377 12.1353 10.7873 13.1545C10.1977 14.1737 9.90422 15.3254 9.9375 16.4898C9.97077 17.6542 10.3296 18.7889 10.9765 19.7757L11.1387 20.0221L10.4498 22.4269L13.0293 21.78L13.2777 21.9208C14.3277 22.5157 15.5257 22.8295 16.7461 22.8295H16.7495C18.5571 22.8298 20.2908 22.1432 21.5691 20.9207C22.8475 19.6983 23.5659 18.0402 23.5662 16.3111C23.5665 14.582 22.8487 12.9237 21.5708 11.7008C20.2928 10.478 18.5594 9.79082 16.7518 9.79053L16.753 9.79163ZM20.7596 19.1091C20.6089 19.3472 20.4082 19.5529 20.1703 19.7133C19.9324 19.8736 19.6624 19.9852 19.3773 20.0408C18.9468 20.1115 18.505 20.0851 18.087 19.9638C17.6906 19.8457 17.301 19.7076 16.9197 19.5502C15.5049 18.871 14.299 17.8517 13.4203 16.5922C12.9409 16.0091 12.65 15.3049 12.5831 14.5659C12.5776 14.2608 12.6385 13.9581 12.7621 13.6768C12.8856 13.3955 13.0691 13.142 13.3007 12.9323C13.3692 12.8576 13.453 12.7972 13.547 12.755C13.641 12.7128 13.7431 12.6896 13.8469 12.687C13.9826 12.687 14.1195 12.687 14.2391 12.6936C14.3656 12.6991 14.5335 12.6474 14.6991 13.0302C14.8716 13.4218 15.281 14.3866 15.3316 14.4845C15.3641 14.5358 15.3827 14.5941 15.3857 14.654C15.3887 14.7139 15.376 14.7736 15.3488 14.8277C15.2973 14.9454 15.2283 15.0554 15.1441 15.1544C15.0406 15.2688 14.9291 15.4096 14.8371 15.4976C14.7336 15.5955 14.6278 15.7011 14.7462 15.8969C15.0539 16.4008 15.438 16.8583 15.8859 17.2544C16.3719 17.6677 16.9296 17.9968 17.5338 18.2268C17.7385 18.3259 17.8581 18.3083 17.9777 18.1773C18.0973 18.0464 18.4895 17.6053 18.6263 17.4095C18.7632 17.2137 18.8989 17.2467 19.0863 17.3116C19.2738 17.3765 20.2823 17.8506 20.487 17.9496C20.6917 18.0486 20.8286 18.0959 20.8792 18.1773C20.9353 18.4924 20.8937 18.8163 20.7596 19.1091Z" fill="#FD9B00"/>
</svg>
