<svg width="33" height="33" viewBox="0 0 33 33" fill="none" xmlns="http://www.w3.org/2000/svg">
<rect width="33" height="33" rx="16.5" fill="white"/>
<path d="M16.5 15.925C15.7422 15.925 15.0155 15.6221 14.4797 15.0829C13.9439 14.5438 13.6429 13.8125 13.6429 13.05C13.6429 12.2875 13.9439 11.5562 14.4797 11.0171C15.0155 10.4779 15.7422 10.175 16.5 10.175C17.2578 10.175 17.9845 10.4779 18.5203 11.0171C19.0561 11.5562 19.3571 12.2875 19.3571 13.05C19.3571 13.4276 19.2832 13.8014 19.1397 14.1502C18.9961 14.499 18.7856 14.816 18.5203 15.0829C18.255 15.3499 17.94 15.5617 17.5934 15.7062C17.2467 15.8506 16.8752 15.925 16.5 15.925ZM16.5 5C14.3783 5 12.3434 5.84812 10.8431 7.35779C9.34285 8.86746 8.5 10.915 8.5 13.05C8.5 19.0875 16.5 28 16.5 28C16.5 28 24.5 19.0875 24.5 13.05C24.5 10.915 23.6571 8.86746 22.1569 7.35779C20.6566 5.84812 18.6217 5 16.5 5Z" fill="#FD9B00"/>
</svg>
