<svg width="20" height="23" viewBox="0 0 20 23" fill="none" xmlns="http://www.w3.org/2000/svg">
<path d="M8.75 0.875336C7.42392 0.875336 6.15215 1.40212 5.21447 2.3398C4.27678 3.27748 3.75 4.54925 3.75 5.87534C3.75 7.20142 4.27678 8.47319 5.21447 9.41087C6.15215 10.3486 7.42392 10.8753 8.75 10.8753C10.0761 10.8753 11.3479 10.3486 12.2855 9.41087C13.2232 8.47319 13.75 7.20142 13.75 5.87534C13.75 4.54925 13.2232 3.27748 12.2855 2.3398C11.3479 1.40212 10.0761 0.875336 8.75 0.875336ZM2.51125 12.1253C2.182 12.1239 1.8557 12.1874 1.55109 12.3124C1.24647 12.4374 0.969546 12.6213 0.736206 12.8536C0.502867 13.0859 0.317711 13.362 0.191372 13.666C0.0650321 13.9701 -3.33358e-06 14.2961 1.28158e-10 14.6253C1.28159e-10 16.7391 1.04125 18.3328 2.66875 19.3716C4.27125 20.3928 6.43125 20.8753 8.75 20.8753C9.19667 20.8753 9.63667 20.8574 10.07 20.8216C9.97004 20.3886 9.97651 19.9378 10.0888 19.5079C10.2012 19.0779 10.416 18.6816 10.715 18.3528L11.3962 17.5941C11.7063 17.2504 12.1028 16.9962 12.5445 16.8579C12.9862 16.7196 13.4569 16.7023 13.9075 16.8078L14.8888 17.0403C15.3613 16.6503 15.6475 16.1903 15.7788 15.6391L15.1312 15.0066C14.7936 14.6765 14.5597 14.2549 14.4582 13.7937C14.3567 13.3325 14.3921 12.8517 14.56 12.4103L14.6675 12.1253H2.51125ZM15.73 12.8528L16.0837 11.9153C16.4062 11.0641 17.4113 10.6441 18.2588 11.0053L18.7438 11.2128C19.335 11.4653 19.8237 11.9228 19.9275 12.5378C20.4987 15.9441 17.5425 20.7891 14.14 22.0253C13.525 22.2478 12.8612 22.0753 12.3337 21.7178L11.9012 21.4241C11.7237 21.3045 11.5742 21.1478 11.4631 20.9648C11.3519 20.7818 11.2818 20.5769 11.2576 20.3642C11.2333 20.1514 11.2555 19.936 11.3226 19.7327C11.3897 19.5294 11.5001 19.3431 11.6463 19.1866L12.3275 18.4278C12.4875 18.2516 12.6917 18.1213 12.9189 18.0503C13.1461 17.9793 13.3881 17.9703 13.62 18.0241L15.1513 18.3866C16.3654 17.6283 17.0163 16.5616 17.1038 15.1866L16.0063 14.1128C15.8423 13.9526 15.7288 13.748 15.6798 13.5241C15.6307 13.3003 15.6481 13.0669 15.73 12.8528Z" fill="#FD9B00"/>
</svg>
