<svg width="37" height="33" viewBox="0 0 37 33" fill="none" xmlns="http://www.w3.org/2000/svg">
<path d="M3.87708 3.01892L31.0164 26.8686C31.5314 27.3212 31.8207 27.935 31.8207 28.575C31.8207 29.215 31.5314 29.8288 31.0164 30.2814C30.5013 30.7338 29.8029 30.9879 29.0747 30.9879C28.3465 30.9879 27.648 30.7338 27.133 30.2814L20.5034 24.355C20.0695 23.9679 19.8261 23.4464 19.8257 22.9031V22.5451C19.8257 22.2707 19.7638 21.9991 19.6434 21.746C19.523 21.4928 19.3466 21.2632 19.1244 21.0705L18.2685 20.3759C17.9779 20.1403 17.6245 19.9727 17.2409 19.8885C16.8573 19.8043 16.4558 19.8063 16.0733 19.8943C15.4702 20.0326 14.8363 20.0299 14.2347 19.8865C13.633 19.7431 13.0845 19.4639 12.6436 19.0767L6.35066 13.5459C2.61746 10.2652 1.24366 5.31113 3.87708 3.01892Z" stroke="#FD9B00" stroke-width="3" stroke-linejoin="round"/>
<path d="M29.107 2L23.4166 7.00065C22.9788 7.38537 22.6314 7.84213 22.3944 8.34484C22.1574 8.84754 22.0355 9.38635 22.0355 9.93049V10.8924C22.0355 11.0285 22.005 11.1633 21.9457 11.289C21.8864 11.4148 21.7995 11.529 21.69 11.6252L20.8569 12.3573M23.2141 14.4288L24.0472 13.6967C24.1567 13.6004 24.2866 13.524 24.4297 13.4719C24.5728 13.4199 24.7262 13.3931 24.881 13.3931H25.9757C26.5948 13.3931 27.208 13.2859 27.78 13.0776C28.3521 12.8694 28.8718 12.5641 29.3096 12.1793L35 7.17867M32.0535 4.58934L26.1605 9.76801M14.3746 23.7504L7.02902 30.2419C6.47647 30.7273 5.72716 31 4.94586 31C4.16455 31 3.41524 30.7273 2.86269 30.2419C2.31031 29.7563 2 29.0978 2 28.4112C2 27.7246 2.31031 27.0661 2.86269 26.5806L9.07093 21.1611" stroke="#FD9B00" stroke-width="3" stroke-linecap="round" stroke-linejoin="round"/>
</svg>
