<svg width="50" height="54" viewBox="0 0 50 54" fill="none" xmlns="http://www.w3.org/2000/svg">
<path d="M48.9545 26.4989C48.8902 19.4714 46.2956 12.7547 41.7412 7.82579C37.1869 2.89687 31.0456 0.159226 24.6677 0.214807L24.7153 5.51459C28.5201 5.48155 32.2504 6.69185 35.435 8.99258C38.6195 11.2933 41.1154 14.5812 42.6073 18.441C43.5975 21.0047 44.1199 23.7574 44.1447 26.5418L48.9545 26.4989ZM0.80892 21.6288L0.690041 8.37937C0.683735 7.67657 0.93106 7.0003 1.37761 6.49932C1.82416 5.99834 2.43335 5.71369 3.07117 5.70799L15.0957 5.60055C15.7335 5.59485 16.3477 5.86857 16.8032 6.36149C17.2586 6.85441 17.5181 7.52616 17.5244 8.22895L17.6195 18.8285C17.6258 19.5313 17.3784 20.2076 16.9319 20.7086C16.4854 21.2096 15.8762 21.4942 15.2383 21.4999L10.4285 21.5429C10.479 27.1652 12.5543 32.5392 16.1981 36.4826C19.8418 40.426 24.7554 42.6157 29.858 42.5701L29.8104 37.2703C29.8041 36.5675 30.0514 35.8913 30.498 35.3903C30.9445 34.8893 31.5537 34.6047 32.1915 34.599L41.8112 34.513C42.449 34.5073 43.0632 34.781 43.5186 35.274C43.9741 35.7669 44.2335 36.4386 44.2398 37.1414L44.3587 50.3909C44.365 51.0937 44.1177 51.77 43.6712 52.2709C43.2246 52.7719 42.6154 53.0566 41.9776 53.0623L29.9531 53.1697C14.0158 53.3121 0.966482 39.1897 0.80892 21.6288Z" fill="#FD9B00"/>
<path d="M38.1813 20.5106C38.9245 22.4327 39.3166 24.4969 39.3349 26.5849L35.0061 26.6236C34.9933 25.1619 34.7193 23.7168 34.1997 22.3709C33.6801 21.025 32.9251 19.8046 31.9778 18.7794C31.0305 17.7543 29.9096 16.9444 28.6789 16.3962C27.4483 15.848 26.1322 15.5721 24.8056 15.5843L24.7628 10.8145C27.6166 10.7891 30.4147 11.6968 32.8031 13.4227C35.1916 15.1486 37.0632 17.6151 38.1813 20.5106Z" fill="#FD9B00"/>
</svg>
