<svg width="25" height="25" viewBox="0 0 25 25" fill="none" xmlns="http://www.w3.org/2000/svg">
<path fill-rule="evenodd" clip-rule="evenodd" d="M0.586388 2.80742C0 3.93627 0 5.41932 0 8.38542V16.6146C0 19.5807 0 21.0637 0.586388 22.1926C1.08053 23.1438 1.85616 23.9195 2.80742 24.4136C3.93627 25 5.41932 25 8.38542 25H16.6146C19.5807 25 21.0637 25 22.1926 24.4136C23.1438 23.9195 23.9195 23.1438 24.4136 22.1926C25 21.0637 25 19.5807 25 16.6146V8.38542C25 5.41932 25 3.93627 24.4136 2.80742C23.9195 1.85616 23.1438 1.08053 22.1926 0.586388C21.0637 0 19.5807 0 16.6146 0H8.38542C5.41932 0 3.93627 0 2.80742 0.586388C1.85616 1.08053 1.08053 1.85616 0.586388 2.80742ZM19.0757 6.03092C17.5008 4.45495 15.4388 3.54242 13.226 3.43367L12.7815 3.42267C7.87709 3.42267 3.88552 7.41205 3.88355 12.3155C3.88291 13.883 4.29264 15.4129 5.07129 16.7616L3.80894 21.3701L8.52584 20.1334C9.82548 20.842 11.2887 21.2154 12.7779 21.2159H12.7816C17.6855 21.2159 21.6774 17.2261 21.6794 12.3226C21.6803 9.94633 20.7556 7.71188 19.0757 6.03092ZM9.01446 18.6836L8.74436 18.5234L5.94532 19.2573L6.69243 16.5296L6.51659 16.2499C5.77629 15.073 5.38531 13.7128 5.38587 12.316C5.38749 8.24047 8.70515 4.92476 12.7845 4.92476C14.7599 4.9254 16.6167 5.69533 18.013 7.09259C19.4093 8.48977 20.1778 10.347 20.177 12.322C20.1754 16.3979 16.8578 19.7139 12.7816 19.7139H12.7786C11.4515 19.7134 10.1499 19.3571 9.01446 18.6836ZM16.9597 14.2373C17.1148 14.3122 17.2195 14.3627 17.2642 14.4374C17.3198 14.5301 17.3198 14.975 17.1346 15.4941C16.9493 16.0131 16.0611 16.4869 15.6339 16.5507C15.2508 16.608 14.7662 16.6318 14.2336 16.4627C13.9107 16.3602 13.4966 16.2235 12.9661 15.9946C10.8819 15.095 9.47342 13.076 9.20716 12.6943C9.1885 12.6676 9.17545 12.6489 9.16817 12.6392L9.16622 12.6366C9.04803 12.4789 8.26033 11.4281 8.26033 10.3404C8.26033 9.3167 8.7635 8.78014 8.99503 8.53325C9.01086 8.51637 9.02542 8.50084 9.03847 8.4866C9.24226 8.26408 9.48312 8.20851 9.63136 8.20851C9.77954 8.20851 9.92791 8.20992 10.0574 8.21634C10.0734 8.21714 10.09 8.21704 10.1072 8.21694C10.2368 8.21619 10.3983 8.21525 10.5577 8.59779C10.619 8.74493 10.7086 8.96303 10.8031 9.19308C10.9945 9.65871 11.2059 10.1733 11.2432 10.2478C11.2987 10.3591 11.3358 10.4888 11.2617 10.6371C11.2505 10.6594 11.2402 10.6804 11.2304 10.7006C11.1747 10.8141 11.1338 10.8976 11.0394 11.0078C11.0023 11.0511 10.964 11.0977 10.9257 11.1443C10.8491 11.2375 10.7725 11.3307 10.7058 11.3972C10.5945 11.5079 10.4787 11.6282 10.6084 11.8507C10.7381 12.0731 11.1843 12.8008 11.8452 13.39C12.5558 14.0235 13.1733 14.2913 13.4863 14.4269C13.5474 14.4534 13.5968 14.4748 13.6331 14.493C13.8554 14.6042 13.9851 14.5857 14.1148 14.4374C14.2445 14.2891 14.6706 13.7885 14.8188 13.5661C14.967 13.3437 15.1152 13.3807 15.319 13.4548C15.5228 13.529 16.6158 14.0666 16.8382 14.1778C16.8815 14.1995 16.9221 14.2191 16.9597 14.2373Z" fill="#EAEAEA"/>
</svg>
