<svg width="25" height="25" viewBox="0 0 25 25" fill="none" xmlns="http://www.w3.org/2000/svg">
<path fill-rule="evenodd" clip-rule="evenodd" d="M0.586388 2.80742C0 3.93627 0 5.41932 0 8.38542V16.6146C0 19.5807 0 21.0637 0.586388 22.1926C1.08053 23.1438 1.85616 23.9195 2.80742 24.4136C3.93627 25 5.41932 25 8.38542 25H16.6146C19.5807 25 21.0637 25 22.1926 24.4136C23.1438 23.9195 23.9195 23.1438 24.4136 22.1926C25 21.0637 25 19.5807 25 16.6146V8.38542C25 5.41932 25 3.93627 24.4136 2.80742C23.9195 1.85616 23.1438 1.08053 22.1926 0.586388C21.0637 0 19.5807 0 16.6146 0H8.38542C5.41932 0 3.93627 0 2.80742 0.586388C1.85616 1.08053 1.08053 1.85616 0.586388 2.80742ZM21.4888 7.78332C21.2726 6.98019 20.6393 6.34696 19.8362 6.13073C18.369 5.72917 12.5 5.72917 12.5 5.72917C12.5 5.72917 6.63096 5.72917 5.16371 6.11528C4.37602 6.33151 3.72734 6.98019 3.51112 7.78332C3.125 9.25057 3.125 12.2932 3.125 12.2932C3.125 12.2932 3.125 15.3512 3.51112 16.803C3.72734 17.6062 4.36058 18.2394 5.16371 18.4556C6.6464 18.8572 12.5 18.8572 12.5 18.8572C12.5 18.8572 18.369 18.8572 19.8362 18.4711C20.6393 18.2549 21.2726 17.6216 21.4888 16.8185C21.8749 15.3512 21.8749 12.3086 21.8749 12.3086C21.8749 12.3086 21.8904 9.25057 21.4888 7.78332ZM10.6311 14.9969L15.5117 12.1859L10.6311 9.375V14.9969Z" fill="#EAEAEA"/>
</svg>
